<svg xmlns="http://www.w3.org/2000/svg" width="104.885" height="16" viewBox="0 0 104.885 16"><defs><style>.a{fill:#002d4f;}</style></defs><path class="a" d="M-1206.549,12.849a7.856,7.856,0,0,1,2.295-5.622,7.857,7.857,0,0,1,5.617-2.307,7.819,7.819,0,0,1,5.629,2.3,7.818,7.818,0,0,1,2.283,5.634,7.856,7.856,0,0,1-2.295,5.621,7.857,7.857,0,0,1-5.616,2.307,7.82,7.82,0,0,1-5.628-2.3,7.819,7.819,0,0,1-2.283-5.633Zm3.461,0a4.338,4.338,0,0,0,1.241,3.226,4.338,4.338,0,0,0,3.205,1.295,4.339,4.339,0,0,0,3.2-1.3,4.338,4.338,0,0,0,1.241-3.226,4.338,4.338,0,0,0-1.241-3.226,4.339,4.339,0,0,0-3.2-1.3,4.339,4.339,0,0,0-3.2,1.3,4.338,4.338,0,0,0-1.241,3.226Zm-71.631,0a7.857,7.857,0,0,1,2.294-5.622,7.856,7.856,0,0,1,5.616-2.307,7.82,7.82,0,0,1,5.628,2.3,7.82,7.82,0,0,1,2.283,5.633,7.858,7.858,0,0,1-2.295,5.622,7.857,7.857,0,0,1-5.617,2.307,7.818,7.818,0,0,1-5.627-2.3,7.819,7.819,0,0,1-2.282-5.633Zm3.461,0a4.34,4.34,0,0,0,1.241,3.226,4.34,4.34,0,0,0,3.2,1.3,4.339,4.339,0,0,0,3.2-1.3,4.339,4.339,0,0,0,1.241-3.226,4.339,4.339,0,0,0-1.241-3.226,4.339,4.339,0,0,0-3.2-1.3,4.34,4.34,0,0,0-3.2,1.3,4.34,4.34,0,0,0-1.241,3.225Zm-24.351,0a7.745,7.745,0,0,1,2.26-5.656A7.744,7.744,0,0,1-1287.7,4.92a7.476,7.476,0,0,1,7.3,5.39.473.473,0,0,1-.08.443.473.473,0,0,1-.415.176h-2.533a.6.6,0,0,1-.619-.433A3.767,3.767,0,0,0-1287.7,8.33a4.287,4.287,0,0,0-3.246,1.3,4.287,4.287,0,0,0-1.2,3.284,4.206,4.206,0,0,0,1.194,3.272,4.207,4.207,0,0,0,3.251,1.25,3.89,3.89,0,0,0,3.648-2.166.6.6,0,0,1,.619-.434h2.533c.372,0,.556.186.495.557a7.369,7.369,0,0,1-7.3,5.39,7.707,7.707,0,0,1-5.663-2.263,7.707,7.707,0,0,1-2.246-5.67Zm62.3,7.371a.493.493,0,0,1-.418-.14.493.493,0,0,1-.138-.418V5.479a.492.492,0,0,1,.139-.418.491.491,0,0,1,.418-.139h2.41c.37,0,.556.186.556.5v14.25a.493.493,0,0,1-.139.419.493.493,0,0,1-.418.14Zm-19.159,0a.493.493,0,0,1-.418-.14.492.492,0,0,1-.138-.418V5.353a.492.492,0,0,1,.138-.418.493.493,0,0,1,.418-.14h6a4.884,4.884,0,0,1,3.635,1.3,4.883,4.883,0,0,1,1.556,3.533,3.464,3.464,0,0,1-.745,2.23,4.531,4.531,0,0,1,1.669,3.408,4.946,4.946,0,0,1-1.531,3.593,4.948,4.948,0,0,1-3.66,1.363Zm2.964-3.1h3.77A1.945,1.945,0,0,0-1244,15.2a1.885,1.885,0,0,0-1.73-1.858h-3.77Zm-.063-6.008h3.152a1.76,1.76,0,0,0,1.73-1.674,1.718,1.718,0,0,0-1.73-1.672h-3.152Zm35.413,9.044a.722.722,0,0,1-.684-.31l-3.71-4.707h-1.36V19.6a.493.493,0,0,1-.139.418.492.492,0,0,1-.417.14h-2.41a.491.491,0,0,1-.418-.139.492.492,0,0,1-.138-.418V5.415a.492.492,0,0,1,.138-.418.491.491,0,0,1,.418-.139h5.315a5.244,5.244,0,0,1,5.191,5.266,5.015,5.015,0,0,1-2.657,4.4l3.955,4.956c.309.372.123.684-.309.684Zm-5.814-8.052h2.41a1.779,1.779,0,0,0,1.279-.588,1.778,1.778,0,0,0,.451-1.333,1.875,1.875,0,0,0-1.73-1.982h-2.41Z" transform="translate(1295.61 -4.785)"/></svg>